<?xml version="1.0" encoding="UTF-8"?>
<svg width="256" height="256" viewBox="0 0 256 256" fill="none" xmlns="http://www.w3.org/2000/svg">
    <!-- 背景圆形 -->
    <circle cx="128" cy="128" r="128" fill="url(#gradient)"/>
    
    <!-- 工具图标 -->
    <path d="M128 64c-35.3 0-64 28.7-64 64 0 35.3 28.7 64 64 64 35.3 0 64-28.7 64-64 0-35.3-28.7-64-64-64zm0 96c-17.7 0-32-14.3-32-32s14.3-32 32-32 32 14.3 32 32-14.3 32-32 32z" fill="white"/>
    
    <!-- 齿轮装饰 -->
    <path d="M195.9 128c0-3.5-.3-6.9-.8-10.3l18.9-14.7-16-27.7-23.6 4.7c-5.3-4.9-11.4-8.9-18.2-11.7L148 44h-40l-8.2 24.3c-6.8 2.8-12.9 6.8-18.2 11.7l-23.6-4.7-16 27.7 18.9 14.7c-.5 3.4-.8 6.8-.8 10.3s.3 6.9.8 10.3l-18.9 14.7 16 27.7 23.6-4.7c5.3 4.9 11.4 8.9 18.2 11.7L108 212h40l8.2-24.3c6.8-2.8 12.9-6.8 18.2-11.7l23.6 4.7 16-27.7-18.9-14.7c.5-3.4.8-6.8.8-10.3z" fill="white" fill-opacity="0.4"/>
    
    <!-- 渐变定义 -->
    <defs>
        <linearGradient id="gradient" x1="0" y1="0" x2="256" y2="256" gradientUnits="userSpaceOnUse">
            <stop offset="0%" style="stop-color:#0077ED"/>
            <stop offset="100%" style="stop-color:#005BBB"/>
        </linearGradient>
    </defs>
</svg>